<svg id="Cinema" height="512" viewBox="0 0 64 64" width="512" xmlns="http://www.w3.org/2000/svg"><path d="m47 61v-11.938a8 8 0 0 0 -7.008-7.938l-.992-.124s-4-1-4-6h-6c0 5-4 6-4 6l-.992.124a8 8 0 0 0 -7.008 7.938v11.938z" fill="#dd5528"/><path d="m25.05 40.99a8.435 8.435 0 0 0 -.05 1.01c0 4.97 4.7 6 7 6s7-1.03 7-6a8.435 8.435 0 0 0 -.05-1.01c-.47-.14-3.95-1.33-3.95-5.99h-6c0 4.66-3.48 5.85-3.95 5.99z" fill="#ffcbbe"/><path d="m58 39a2.984 2.984 0 0 0 -1.116.22 2.983 2.983 0 0 0 -5.768 0 2.982 2.982 0 0 0 -4.032 2.1 2 2 0 1 0 -1.084 3.68h12a3 3 0 0 0 0-6z" fill="#fae058"/><path d="m45 61h14l1-17h-16z" fill="#e9e9ea"/><path d="m48.5 61h7l.5-17h-8z" fill="#ec455a"/><path d="m19 61h-13l-1-13h15z" fill="#5bcbfa"/><path d="m3 44h19v4h-19z" fill="#b7c1cd"/><path d="m7 40h11a2 2 0 0 1 2 2v2a0 0 0 0 1 0 0h-15a0 0 0 0 1 0 0v-2a2 2 0 0 1 2-2z" fill="#5bcbfa"/><g fill="#ffcbbe"><path d="m12 55.79v3.21a2.006 2.006 0 0 1 -2 2h-7v-8a2.006 2.006 0 0 1 2-2 2 2 0 0 1 2 2v.44l3.22.36a2 2 0 0 1 1.78 1.99z"/><path d="m51 55.79v3.21a2.006 2.006 0 0 0 2 2h7v-8a2.006 2.006 0 0 0 -2-2 2 2 0 0 0 -2 2v.44l-3.22.36a2 2 0 0 0 -1.78 1.99z"/><circle cx="17" cy="27" r="4"/><circle cx="47" cy="27" r="4"/></g><ellipse cx="32" cy="21.5" fill="#ffddce" rx="15" ry="16.5"/><path d="m32 35a4.395 4.395 0 0 1 -3.4-1.4 1 1 0 0 1 .8-1.6.944.944 0 0 1 .738.33 2.461 2.461 0 0 0 1.862.67 2.461 2.461 0 0 0 1.858-.67.944.944 0 0 1 .742-.33 1 1 0 0 1 .807 1.6 4.395 4.395 0 0 1 -3.407 1.4z" fill="#2d2d30"/><path d="m30 29h-8v-8h10z" fill="#ec455a"/><path d="m42 29h-8l-2-8h10z" fill="#44ffe8"/><path d="m35.4 33.6a1 1 0 0 0 -.8-1.6.944.944 0 0 0 -.738.33 2.461 2.461 0 0 1 -1.862.67 2.461 2.461 0 0 1 -1.858-.67.944.944 0 0 0 -.742-.33 1 1 0 0 0 -.807 1.6 4.395 4.395 0 0 0 3.407 1.4 4.395 4.395 0 0 0 3.4-1.4z" fill="#3e3d42"/><path d="m8 35h2v5h-2z" fill="#b7c1cd"/><path d="m17.2 22.98-.4-1.96 5-1a.925.925 0 0 1 .2-.02h20a.984.984 0 0 1 .242.03l4 1-.484 1.94-3.881-.97h-19.777z" fill="#3e3d42"/><path d="m45 9.378v-.378a6 6 0 0 0 -6-6h-25v6a7.947 7.947 0 0 0 1.179 4.164 5.536 5.536 0 0 0 -.162 1.818l.54 7.018 2 5 1-9 .359-1.618a7.974 7.974 0 0 0 3.084.618h22.778l.222 1 1 9 2-5 .54-7.018a5.554 5.554 0 0 0 -3.54-5.604z" fill="#787680"/></svg>