<?xml version="1.0" encoding="UTF-8"?>
<svg xmlns="http://www.w3.org/2000/svg" id="Cinema" viewBox="0 0 64 64" width="512" height="512"><path d="M60.97,44.65A3.979,3.979,0,0,0,58,38a3.153,3.153,0,0,0-.53.04,3.971,3.971,0,0,0-6.94,0,3.993,3.993,0,0,0-4.02,2A2.922,2.922,0,0,0,46,40a3.025,3.025,0,0,0-2.46,1.29,9.007,9.007,0,0,0-3.43-1.16l-.91-.11a4.648,4.648,0,0,1-2.35-1.85,16.21,16.21,0,0,0,8.21-6.58,4.989,4.989,0,1,0,3.86-9.2l.01-.02a.947.947,0,0,0,.07-.29l.54-7.02A6.516,6.516,0,0,0,46,8.73,7.015,7.015,0,0,0,39,2H14a1,1,0,0,0-1,1V9a8.9,8.9,0,0,0,1.12,4.33,6.687,6.687,0,0,0-.1,1.73l.54,7.02a.925.925,0,0,0,.1.36l.06.13A4.988,4.988,0,0,0,17,32a4.925,4.925,0,0,0,1.94-.41,16.4,16.4,0,0,0,8.22,6.57,4.654,4.654,0,0,1-2.36,1.86l-.91.11a8.732,8.732,0,0,0-3.04.97A3,3,0,0,0,18,39H11.72L9.95,33.68l-1.9.64L9.61,39H7a3.009,3.009,0,0,0-3,3v1H3a1,1,0,0,0-1,1v4a1,1,0,0,0,1,1H4.07l.09,1.13A3.009,3.009,0,0,0,2,53v8a1,1,0,0,0,1,1H60a1,1,0,0,0,1-1V53a2.972,2.972,0,0,0-.44-1.55ZM48.18,24.24a3,3,0,0,1-2.12,5.6,18.122,18.122,0,0,0,1.37-3.72ZM17,30a3.009,3.009,0,0,1-3-3,2.976,2.976,0,0,1,1.6-2.64l1.11,2.27a17.943,17.943,0,0,0,1.24,3.21A3.005,3.005,0,0,1,17,30Zm1.46-14.51a1,1,0,0,0-.52.68l-.36,1.61a.875.875,0,0,0-.02.16l-.32,5.22-.7-1.43-.53-6.82a4.724,4.724,0,0,1,.14-1.5,1.039,1.039,0,0,0-.12-.77A7.006,7.006,0,0,1,15,9V4H39a5,5,0,0,1,5,5v.38a.994.994,0,0,0,.64.93,4.524,4.524,0,0,1,2.9,4.6l-.53,6.86-.46,1.15-.56-5.03c0-.04-.01-.07-.01-.11l-.23-1a1,1,0,0,0-.97-.78H22a6.96,6.96,0,0,1-2.7-.54A1.025,1.025,0,0,0,18.46,15.49ZM22,20a1.355,1.355,0,0,0-.2.02l-2.4.48.15-2.36.1-.45A8.815,8.815,0,0,0,22,18H43.98l.27,2.43-2.05-.41A1.355,1.355,0,0,0,42,20Zm19,2v6H34.78l-1.5-6ZM30.72,22l-1.5,6H23V22ZM18.97,27.17a.451.451,0,0,0,.03-.11l.28-4.5L21,22.22V29a1,1,0,0,0,1,1h8a1,1,0,0,0,.97-.76L32,25.12l1.03,4.12A1,1,0,0,0,34,30h8a1,1,0,0,0,1-1V22.22l1.49.3.52,4.59c0,.02.01.04.01.06C42.94,33.03,37.79,37,32,37,26.26,37,21.06,33.02,18.97,27.17Zm7.05,14.51a6.641,6.641,0,0,0,3.14-2.97A14.951,14.951,0,0,0,32,39a14.2,14.2,0,0,0,2.85-.29,6.585,6.585,0,0,0,3.13,2.97c.01.11.02.21.02.32,0,4.86-5.39,5-6,5s-6-.14-6-5C26,41.89,26.01,41.79,26.02,41.68ZM6,42a1,1,0,0,1,1-1H18a1,1,0,0,1,1,1v1H6Zm5,17a1,1,0,0,1-1,1H4V53a1,1,0,0,1,2,0v.44a.989.989,0,0,0,.89.99l3.22.36a1.006,1.006,0,0,1,.89,1Zm7.07,1H12.82A3,3,0,0,0,13,59V55.79a3,3,0,0,0-2.67-2.98l-2.37-.27a2.977,2.977,0,0,0-1.79-2.29L6.08,49H18.92ZM4,47V45H21v2ZM20.08,60l.85-11H22a1,1,0,0,0,1-1V44a1,1,0,0,0-1-1h-.49a6.949,6.949,0,0,1,2.5-.86C24.09,47.55,29.05,49,32,49s7.91-1.45,7.99-6.86a6.833,6.833,0,0,1,3.06,1.23,2.13,2.13,0,0,0,.03.25,1.108,1.108,0,0,0-.08.44L43.94,60Zm25.86,0-.88-15h1.97l.44,15Zm4.24,0h-.71l-.44-15h5.94l-.22,7.57-2.08.24A2.984,2.984,0,0,0,50,55.79V59A3,3,0,0,0,50.18,60ZM59,60H53a1,1,0,0,1-1-1V55.79a1.006,1.006,0,0,1,.89-1l3.22-.36a1,1,0,0,0,.89-.99V53a.949.949,0,0,1,.31-.71A.928.928,0,0,1,58,52a.98.98,0,0,1,.78.39A.95.95,0,0,1,59,53Zm-2.18-9.76L56.97,45h1.97l-.3,5.07A3.39,3.39,0,0,0,58,50,3.07,3.07,0,0,0,56.82,50.24ZM59.73,43H45.01a.139.139,0,0,1,0-.09,1.022,1.022,0,0,1,1.53-.75,1,1,0,0,0,.92.09,1.012,1.012,0,0,0,.59-.7,2.005,2.005,0,0,1,2.7-1.4,1.013,1.013,0,0,0,1.34-.67,1.972,1.972,0,0,1,3.82,0,1.013,1.013,0,0,0,1.34.67A2.011,2.011,0,0,1,60,42,1.923,1.923,0,0,1,59.73,43Z"/><path d="M35.4,33.6A1,1,0,0,0,34.6,32a.944.944,0,0,0-.738.33A2.461,2.461,0,0,1,32,33a2.461,2.461,0,0,1-1.858-.67A.944.944,0,0,0,29.4,32a1,1,0,0,0-.807,1.6A4.395,4.395,0,0,0,32,35,4.395,4.395,0,0,0,35.4,33.6Z"/></svg>
