<svg id="Cinema" height="512" viewBox="0 0 64 64" width="512" xmlns="http://www.w3.org/2000/svg"><path d="m47 61v-11.938a8 8 0 0 0 -7.008-7.938l-.992-.124s-4-1-4-6h-6c0 5-4 6-4 6l-.992.124a8 8 0 0 0 -7.008 7.938v11.938z" fill="#dd5528"/><path d="m25.05 40.99a8.435 8.435 0 0 0 -.05 1.01c0 4.97 4.7 6 7 6s7-1.03 7-6a8.435 8.435 0 0 0 -.05-1.01c-.47-.14-3.95-1.33-3.95-5.99h-6c0 4.66-3.48 5.85-3.95 5.99z" fill="#ffcbbe"/><path d="m58 39a2.984 2.984 0 0 0 -1.116.22 2.983 2.983 0 0 0 -5.768 0 2.982 2.982 0 0 0 -4.032 2.1 2 2 0 1 0 -1.084 3.68h12a3 3 0 0 0 0-6z" fill="#fae058"/><path d="m45 61h14l1-17h-16z" fill="#fff"/><path d="m48.5 61h7l.5-17h-8z" fill="#ec455a"/><path d="m19 61h-13l-1-13h15z" fill="#5bcbfa"/><path d="m3 44h19v4h-19z" fill="#b7c1cd"/><path d="m7 40h11a2 2 0 0 1 2 2v2a0 0 0 0 1 0 0h-15a0 0 0 0 1 0 0v-2a2 2 0 0 1 2-2z" fill="#5bcbfa"/><g fill="#ffcbbe"><path d="m12 55.79v3.21a2.006 2.006 0 0 1 -2 2h-7v-8a2.006 2.006 0 0 1 2-2 2 2 0 0 1 2 2v.44l3.22.36a2 2 0 0 1 1.78 1.99z"/><path d="m51 55.79v3.21a2.006 2.006 0 0 0 2 2h7v-8a2.006 2.006 0 0 0 -2-2 2 2 0 0 0 -2 2v.44l-3.22.36a2 2 0 0 0 -1.78 1.99z"/><circle cx="17" cy="27" r="4"/><circle cx="47" cy="27" r="4"/></g><ellipse cx="32" cy="21.5" fill="#ffddce" rx="15" ry="16.5"/><path d="m32 35a4.395 4.395 0 0 1 -3.4-1.4 1 1 0 0 1 .8-1.6.944.944 0 0 1 .738.33 2.461 2.461 0 0 0 1.862.67 2.461 2.461 0 0 0 1.858-.67.944.944 0 0 1 .742-.33 1 1 0 0 1 .807 1.6 4.395 4.395 0 0 1 -3.407 1.4z" fill="#2d2d30"/><path d="m30 29h-8v-8h10z" fill="#ec455a"/><path d="m42 29h-8l-2-8h10z" fill="#44ffe8"/><path d="m45 9.378v-.378a6 6 0 0 0 -6-6h-25v6a7.947 7.947 0 0 0 1.179 4.164 5.536 5.536 0 0 0 -.162 1.818l.54 7.018 2 5 1-9 .359-1.618a7.974 7.974 0 0 0 3.084.618h22.778l.222 1 1 9 2-5 .54-7.018a5.554 5.554 0 0 0 -3.54-5.604z" fill="#787680"/><path d="m60.97 44.65a3.979 3.979 0 0 0 -2.97-6.65 3.153 3.153 0 0 0 -.53.04 3.971 3.971 0 0 0 -6.94 0 3.993 3.993 0 0 0 -4.02 2 2.922 2.922 0 0 0 -.51-.04 3.025 3.025 0 0 0 -2.46 1.29 9.007 9.007 0 0 0 -3.43-1.16l-.91-.11a4.648 4.648 0 0 1 -2.35-1.85 16.21 16.21 0 0 0 8.21-6.58 4.989 4.989 0 1 0 3.86-9.2l.01-.02a.947.947 0 0 0 .07-.29l.54-7.02a6.516 6.516 0 0 0 -3.54-6.33 7.015 7.015 0 0 0 -7-6.73h-25a1 1 0 0 0 -1 1v6a8.9 8.9 0 0 0 1.12 4.33 6.687 6.687 0 0 0 -.1 1.73l.54 7.02a.925.925 0 0 0 .1.36l.06.13a4.988 4.988 0 0 0 2.28 9.43 4.925 4.925 0 0 0 1.94-.41 16.4 16.4 0 0 0 8.22 6.57 4.654 4.654 0 0 1 -2.36 1.86l-.91.11a8.732 8.732 0 0 0 -3.04.97 3 3 0 0 0 -2.85-2.1h-6.28l-1.77-5.32-1.9.64 1.56 4.68h-2.61a3.009 3.009 0 0 0 -3 3v1h-1a1 1 0 0 0 -1 1v4a1 1 0 0 0 1 1h1.07l.09 1.13a3.009 3.009 0 0 0 -2.16 2.87v8a1 1 0 0 0 1 1h57a1 1 0 0 0 1-1v-8a2.972 2.972 0 0 0 -.44-1.55zm-12.79-20.41a3 3 0 0 1 -2.12 5.6 18.122 18.122 0 0 0 1.37-3.72zm-31.18 5.76a3.009 3.009 0 0 1 -3-3 2.976 2.976 0 0 1 1.6-2.64l1.11 2.27a17.943 17.943 0 0 0 1.24 3.21 3.005 3.005 0 0 1 -.95.16zm1.46-14.51a1 1 0 0 0 -.52.68l-.36 1.61a.875.875 0 0 0 -.02.16l-.32 5.22-.7-1.43-.53-6.82a4.724 4.724 0 0 1 .14-1.5 1.039 1.039 0 0 0 -.12-.77 7.006 7.006 0 0 1 -1.03-3.64v-5h24a5 5 0 0 1 5 5v.38a.994.994 0 0 0 .64.93 4.524 4.524 0 0 1 2.9 4.6l-.53 6.86-.46 1.15-.56-5.03c0-.04-.01-.07-.01-.11l-.23-1a1 1 0 0 0 -.97-.78h-22.78a6.96 6.96 0 0 1 -2.7-.54 1.025 1.025 0 0 0 -.84.03zm3.54 4.51a1.355 1.355 0 0 0 -.2.02l-2.4.48.15-2.36.1-.45a8.815 8.815 0 0 0 2.35.31h21.98l.27 2.43-2.05-.41a1.355 1.355 0 0 0 -.2-.02zm19 2v6h-6.22l-1.5-6zm-10.28 0-1.5 6h-6.22v-6zm-11.75 5.17a.451.451 0 0 0 .03-.11l.28-4.5 1.72-.34v6.78a1 1 0 0 0 1 1h8a1 1 0 0 0 .97-.76l1.03-4.12 1.03 4.12a1 1 0 0 0 .97.76h8a1 1 0 0 0 1-1v-6.78l1.49.3.52 4.59c0 .02.01.04.01.06-2.08 5.86-7.23 9.83-13.02 9.83-5.74 0-10.94-3.98-13.03-9.83zm7.05 14.51a6.641 6.641 0 0 0 3.14-2.97 14.951 14.951 0 0 0 2.84.29 14.2 14.2 0 0 0 2.85-.29 6.585 6.585 0 0 0 3.13 2.97c.01.11.02.21.02.32 0 4.86-5.39 5-6 5s-6-.14-6-5c0-.11.01-.21.02-.32zm-20.02.32a1 1 0 0 1 1-1h11a1 1 0 0 1 1 1v1h-13zm5 17a1 1 0 0 1 -1 1h-6v-7a1 1 0 0 1 2 0v.44a.989.989 0 0 0 .89.99l3.22.36a1.006 1.006 0 0 1 .89 1zm7.07 1h-5.25a3 3 0 0 0 .18-1v-3.21a3 3 0 0 0 -2.67-2.98l-2.37-.27a2.977 2.977 0 0 0 -1.79-2.29l-.09-1.25h12.84zm-14.07-13v-2h17v2zm16.08 13 .85-11h1.07a1 1 0 0 0 1-1v-4a1 1 0 0 0 -1-1h-.49a6.949 6.949 0 0 1 2.5-.86c.08 5.41 5.04 6.86 7.99 6.86s7.91-1.45 7.99-6.86a6.833 6.833 0 0 1 3.06 1.23 2.13 2.13 0 0 0 .03.25 1.108 1.108 0 0 0 -.08.44l.94 15.94zm25.86 0-.88-15h1.97l.44 15zm4.24 0h-.71l-.44-15h5.94l-.22 7.57-2.08.24a2.984 2.984 0 0 0 -2.67 2.98v3.21a3 3 0 0 0 .18 1zm8.82 0h-6a1 1 0 0 1 -1-1v-3.21a1.006 1.006 0 0 1 .89-1l3.22-.36a1 1 0 0 0 .89-.99v-.44a.949.949 0 0 1 .31-.71.928.928 0 0 1 .69-.29.98.98 0 0 1 .78.39.95.95 0 0 1 .22.61zm-2.18-9.76.15-5.24h1.97l-.3 5.07a3.39 3.39 0 0 0 -.64-.07 3.07 3.07 0 0 0 -1.18.24zm2.91-7.24h-14.72a.139.139 0 0 1 0-.09 1.022 1.022 0 0 1 1.53-.75 1 1 0 0 0 .92.09 1.012 1.012 0 0 0 .59-.7 2.005 2.005 0 0 1 2.7-1.4 1.013 1.013 0 0 0 1.34-.67 1.972 1.972 0 0 1 3.82 0 1.013 1.013 0 0 0 1.34.67 2.011 2.011 0 0 1 2.75 1.85 1.923 1.923 0 0 1 -.27 1z"/><path d="m35.4 33.6a1 1 0 0 0 -.8-1.6.944.944 0 0 0 -.738.33 2.461 2.461 0 0 1 -1.862.67 2.461 2.461 0 0 1 -1.858-.67.944.944 0 0 0 -.742-.33 1 1 0 0 0 -.807 1.6 4.395 4.395 0 0 0 3.407 1.4 4.395 4.395 0 0 0 3.4-1.4z"/></svg>