<svg id="Cinema" height="512" viewBox="0 0 64 64" width="512" xmlns="http://www.w3.org/2000/svg"><path d="m6 3h52v34h-52z" fill="#4a80aa"/><circle cx="32" cy="21" fill="#ec455a" r="8"/><path d="m29 17v8l8-4z" fill="#fff"/><g fill="#b7c1cd"><path d="m11 52v-9a2.006 2.006 0 0 1 2-2h6a2.006 2.006 0 0 1 2 2v9z"/><path d="m27 52v-9a2.006 2.006 0 0 1 2-2h6a2.006 2.006 0 0 1 2 2v9z"/><path d="m43 52v-9a2.006 2.006 0 0 1 2-2h6a2.006 2.006 0 0 1 2 2v9z"/></g><path d="m13 52v4h6" fill="none"/><path d="m19 56h-6v-4h6" fill="none"/><path d="m60 29v4h-5l.67-4z" fill="#5bcbfa"/><path d="m52 7a66.451 66.451 0 0 0 2.35 17h5.65v-17z" fill="#5bcbfa"/><path d="m52 24h7a2 2 0 0 1 2 2v1a2 2 0 0 1 -2 2h-7a0 0 0 0 1 0 0v-5a0 0 0 0 1 0 0z" fill="#e9e9ea" transform="matrix(-1 0 0 -1 113 53)"/><path d="m4 29v4h5l-.67-4z" fill="#5bcbfa"/><path d="m12 7a66.451 66.451 0 0 1 -2.35 17h-5.65v-17z" fill="#5bcbfa"/><path d="m3 24h7a2 2 0 0 1 2 2v1a2 2 0 0 1 -2 2h-7a0 0 0 0 1 0 0v-5a0 0 0 0 1 0 0z" fill="#e9e9ea"/><path d="m3 3h58v4h-58z" fill="#6fc991"/><path d="m13 52h38v4h-38z" fill="#365e7d"/><path d="m13 56v5h-10v-13a2.006 2.006 0 0 1 2-2h6a2.006 2.006 0 0 1 2 2z" fill="#3e3d42"/><path d="m3 57h10v4h-10z" fill="#787680"/><path d="m29 56v5h-10v-13a2.006 2.006 0 0 1 2-2h6a2.006 2.006 0 0 1 2 2z" fill="#3e3d42"/><path d="m19 57h10v4h-10z" fill="#787680"/><path d="m45 56v5h-10v-13a2.006 2.006 0 0 1 2-2h6a2.006 2.006 0 0 1 2 2z" fill="#3e3d42"/><path d="m35 57h10v4h-10z" fill="#787680"/><path d="m61 56v5h-10v-13a2.006 2.006 0 0 1 2-2h6a2.006 2.006 0 0 1 2 2z" fill="#3e3d42"/><path d="m51 57h10v4h-10z" fill="#787680"/></svg>