<?xml version="1.0" encoding="UTF-8"?>
<svg xmlns="http://www.w3.org/2000/svg" id="Cinema" viewBox="0 0 64 64" width="512" height="512"><path d="M32,12a9,9,0,1,0,9,9A9.01,9.01,0,0,0,32,12Zm0,16a7,7,0,1,1,7-7A7.008,7.008,0,0,1,32,28Z"/><path d="M28.475,16.149A1,1,0,0,0,28,17v8a1,1,0,0,0,1.447.895l8-4a1,1,0,0,0,0-1.79l-8-4A1,1,0,0,0,28.475,16.149ZM30,18.618,34.764,21,30,23.382Z"/><path d="M62,7V3a1,1,0,0,0-1-1H3A1,1,0,0,0,2,3V7A1,1,0,0,0,3,8V23a1,1,0,0,0-1,1v5a1,1,0,0,0,1,1v3a1,1,0,0,0,1,1H5v3a1,1,0,0,0,1,1H58a1,1,0,0,0,1-1V34h1a1,1,0,0,0,1-1V30a1,1,0,0,0,1-1V24a1,1,0,0,0-1-1V8A1,1,0,0,0,62,7ZM4,28V25h6a1,1,0,0,1,1,1v1a1,1,0,0,1-1,1Zm1-5V8h5.99A67.71,67.71,0,0,1,8.9,23Zm0,9V30H7.48l.34,2Zm52,4H7V34H9a1.011,1.011,0,0,0,.76-.35,1.024,1.024,0,0,0,.23-.82L9.51,30H10a3.009,3.009,0,0,0,3-3V26a3,3,0,0,0-2.08-2.84A68.835,68.835,0,0,0,12.99,8H51.01a68.835,68.835,0,0,0,2.07,15.16A3,3,0,0,0,51,26v1a3.009,3.009,0,0,0,3,3h.49l-.48,2.83a1.024,1.024,0,0,0,.23.82A1.011,1.011,0,0,0,55,34h2ZM53.01,8H59V23H55.1A67.71,67.71,0,0,1,53.01,8ZM59,32H56.18l.34-2H59Zm1-4H54a1,1,0,0,1-1-1V26a1,1,0,0,1,1-1h6ZM60,6H4V4H60Z"/><path d="M59,45H54V43a3.009,3.009,0,0,0-3-3H45a3.009,3.009,0,0,0-3,3v2H38V43a3.009,3.009,0,0,0-3-3H29a3.009,3.009,0,0,0-3,3v2H22V43a3.009,3.009,0,0,0-3-3H13a3.009,3.009,0,0,0-3,3v2H5a3.009,3.009,0,0,0-3,3V61a1,1,0,0,0,1,1H13a1,1,0,0,0,1-1V57h4v4a1,1,0,0,0,1,1H29a1,1,0,0,0,1-1V57h4v4a1,1,0,0,0,1,1H45a1,1,0,0,0,1-1V57h4v4a1,1,0,0,0,1,1H61a1,1,0,0,0,1-1V48A3.009,3.009,0,0,0,59,45ZM12,60H4V58h8Zm0-4H4V48a1,1,0,0,1,1-1h6a1,1,0,0,1,1,1Zm6-1H14V53h4Zm0-7v3H14V48a3.014,3.014,0,0,0-2-2.83V43a1,1,0,0,1,1-1h6a1,1,0,0,1,1,1v2.17A3.014,3.014,0,0,0,18,48ZM28,60H20V58h8Zm0-4H20V48a1,1,0,0,1,1-1h6a1,1,0,0,1,1,1Zm6-1H30V53h4Zm0-7v3H30V48a3.01,3.01,0,0,0-2-2.82V43a1,1,0,0,1,1-1h6a1,1,0,0,1,1,1v2.18A3.01,3.01,0,0,0,34,48ZM44,60H36V58h8Zm0-4H36V48a1,1,0,0,1,1-1h6a1,1,0,0,1,1,1Zm6-1H46V53h4Zm0-7v3H46V48a3.01,3.01,0,0,0-2-2.82V43a1,1,0,0,1,1-1h6a1,1,0,0,1,1,1v2.18A3.01,3.01,0,0,0,50,48ZM60,60H52V58h8Zm0-4H52V48a1,1,0,0,1,1-1h6a1,1,0,0,1,1,1Z"/></svg>
