<svg id="Cinema" height="512" viewBox="0 0 64 64" width="512" xmlns="http://www.w3.org/2000/svg"><path d="m6 3h52v34h-52z" fill="#4a80aa"/><circle cx="32" cy="21" fill="#ec455a" r="8"/><path d="m29 17v8l8-4z" fill="#fff"/><g fill="#b7c1cd"><path d="m11 52v-9a2.006 2.006 0 0 1 2-2h6a2.006 2.006 0 0 1 2 2v9z"/><path d="m27 52v-9a2.006 2.006 0 0 1 2-2h6a2.006 2.006 0 0 1 2 2v9z"/><path d="m43 52v-9a2.006 2.006 0 0 1 2-2h6a2.006 2.006 0 0 1 2 2v9z"/></g><path d="m13 52v4h6" fill="none"/><path d="m19 56h-6v-4h6" fill="none"/><path d="m60 29v4h-5l.67-4z" fill="#5bcbfa"/><path d="m52 7a66.451 66.451 0 0 0 2.35 17h5.65v-17z" fill="#5bcbfa"/><path d="m52 24h7a2 2 0 0 1 2 2v1a2 2 0 0 1 -2 2h-7a0 0 0 0 1 0 0v-5a0 0 0 0 1 0 0z" fill="#e9e9ea" transform="matrix(-1 0 0 -1 113 53)"/><path d="m4 29v4h5l-.67-4z" fill="#5bcbfa"/><path d="m12 7a66.451 66.451 0 0 1 -2.35 17h-5.65v-17z" fill="#5bcbfa"/><path d="m3 24h7a2 2 0 0 1 2 2v1a2 2 0 0 1 -2 2h-7a0 0 0 0 1 0 0v-5a0 0 0 0 1 0 0z" fill="#e9e9ea"/><path d="m3 3h58v4h-58z" fill="#6fc991"/><path d="m13 52h38v4h-38z" fill="#365e7d"/><path d="m13 56v5h-10v-13a2.006 2.006 0 0 1 2-2h6a2.006 2.006 0 0 1 2 2z" fill="#3e3d42"/><path d="m3 57h10v4h-10z" fill="#787680"/><path d="m29 56v5h-10v-13a2.006 2.006 0 0 1 2-2h6a2.006 2.006 0 0 1 2 2z" fill="#3e3d42"/><path d="m19 57h10v4h-10z" fill="#787680"/><path d="m45 56v5h-10v-13a2.006 2.006 0 0 1 2-2h6a2.006 2.006 0 0 1 2 2z" fill="#3e3d42"/><path d="m35 57h10v4h-10z" fill="#787680"/><path d="m61 56v5h-10v-13a2.006 2.006 0 0 1 2-2h6a2.006 2.006 0 0 1 2 2z" fill="#3e3d42"/><path d="m51 57h10v4h-10z" fill="#787680"/><path d="m32 12a9 9 0 1 0 9 9 9.01 9.01 0 0 0 -9-9zm0 16a7 7 0 1 1 7-7 7.008 7.008 0 0 1 -7 7z"/><path d="m28.475 16.149a1 1 0 0 0 -.475.851v8a1 1 0 0 0 1.447.895l8-4a1 1 0 0 0 0-1.79l-8-4a1 1 0 0 0 -.972.044zm1.525 2.469 4.764 2.382-4.764 2.382z"/><path d="m62 7v-4a1 1 0 0 0 -1-1h-58a1 1 0 0 0 -1 1v4a1 1 0 0 0 1 1v15a1 1 0 0 0 -1 1v5a1 1 0 0 0 1 1v3a1 1 0 0 0 1 1h1v3a1 1 0 0 0 1 1h52a1 1 0 0 0 1-1v-3h1a1 1 0 0 0 1-1v-3a1 1 0 0 0 1-1v-5a1 1 0 0 0 -1-1v-15a1 1 0 0 0 1-1zm-58 21v-3h6a1 1 0 0 1 1 1v1a1 1 0 0 1 -1 1zm1-5v-15h5.99a67.71 67.71 0 0 1 -2.09 15zm0 9v-2h2.48l.34 2zm52 4h-50v-2h2a1.011 1.011 0 0 0 .76-.35 1.024 1.024 0 0 0 .23-.82l-.48-2.83h.49a3.009 3.009 0 0 0 3-3v-1a3 3 0 0 0 -2.08-2.84 68.835 68.835 0 0 0 2.07-15.16h38.02a68.835 68.835 0 0 0 2.07 15.16 3 3 0 0 0 -2.08 2.84v1a3.009 3.009 0 0 0 3 3h.49l-.48 2.83a1.024 1.024 0 0 0 .23.82 1.011 1.011 0 0 0 .76.35h2zm-3.99-28h5.99v15h-3.9a67.71 67.71 0 0 1 -2.09-15zm5.99 24h-2.82l.34-2h2.48zm1-4h-6a1 1 0 0 1 -1-1v-1a1 1 0 0 1 1-1h6zm0-22h-56v-2h56z"/><path d="m59 45h-5v-2a3.009 3.009 0 0 0 -3-3h-6a3.009 3.009 0 0 0 -3 3v2h-4v-2a3.009 3.009 0 0 0 -3-3h-6a3.009 3.009 0 0 0 -3 3v2h-4v-2a3.009 3.009 0 0 0 -3-3h-6a3.009 3.009 0 0 0 -3 3v2h-5a3.009 3.009 0 0 0 -3 3v13a1 1 0 0 0 1 1h10a1 1 0 0 0 1-1v-4h4v4a1 1 0 0 0 1 1h10a1 1 0 0 0 1-1v-4h4v4a1 1 0 0 0 1 1h10a1 1 0 0 0 1-1v-4h4v4a1 1 0 0 0 1 1h10a1 1 0 0 0 1-1v-13a3.009 3.009 0 0 0 -3-3zm-47 15h-8v-2h8zm0-4h-8v-8a1 1 0 0 1 1-1h6a1 1 0 0 1 1 1zm6-1h-4v-2h4zm0-7v3h-4v-3a3.014 3.014 0 0 0 -2-2.83v-2.17a1 1 0 0 1 1-1h6a1 1 0 0 1 1 1v2.17a3.014 3.014 0 0 0 -2 2.83zm10 12h-8v-2h8zm0-4h-8v-8a1 1 0 0 1 1-1h6a1 1 0 0 1 1 1zm6-1h-4v-2h4zm0-7v3h-4v-3a3.01 3.01 0 0 0 -2-2.82v-2.18a1 1 0 0 1 1-1h6a1 1 0 0 1 1 1v2.18a3.01 3.01 0 0 0 -2 2.82zm10 12h-8v-2h8zm0-4h-8v-8a1 1 0 0 1 1-1h6a1 1 0 0 1 1 1zm6-1h-4v-2h4zm0-7v3h-4v-3a3.01 3.01 0 0 0 -2-2.82v-2.18a1 1 0 0 1 1-1h6a1 1 0 0 1 1 1v2.18a3.01 3.01 0 0 0 -2 2.82zm10 12h-8v-2h8zm0-4h-8v-8a1 1 0 0 1 1-1h6a1 1 0 0 1 1 1z"/></svg>