<svg id="Capa_1" enable-background="new 0 0 512 512" height="512" viewBox="0 0 512 512" width="512" xmlns="http://www.w3.org/2000/svg"><g><g><path d="m256.18 101.38c-4.36 0-8.293-2.931-9.56-7.098-1.161-3.82.118-8.098 3.216-10.63 3.378-2.76 8.264-2.985 11.893-.582 3.359 2.224 5.06 6.404 4.238 10.344-.955 4.583-5.101 7.966-9.787 7.966z"/><path d="m234.404 272.196c-3.255 0-6.52-.783-9.516-2.366-6.694-3.536-10.853-10.436-10.853-18.006v-86.572c0-7.57 4.158-14.469 10.852-18.005 6.691-3.536 14.735-3.083 20.989 1.185l63.438 43.286c5.563 3.797 8.886 10.086 8.886 16.822-.001 6.735-3.322 13.023-8.886 16.82l-63.438 43.286c-3.453 2.356-7.454 3.55-11.472 3.55zm.013-107.325c-.048 0-.106.018-.188.061-.194.103-.194.175-.194.321v86.572c0 .146 0 .219.194.322.193.104.254.061.374-.021l63.437-43.287c.082-.056.159-.108.159-.3s-.078-.245-.159-.301l-63.437-43.286c-.068-.048-.118-.081-.186-.081zm69.261 52.228h.01z"/><path d="m469.346 31.729h-426.692c-23.519 0-42.654 19.135-42.654 42.655v395.887c0 5.523 4.477 10 10 10h492c5.522 0 10-4.477 10-10v-395.887c0-23.52-19.135-42.655-42.654-42.655zm-426.692 20h426.691c12.491 0 22.654 10.163 22.654 22.654v298.407c-5.31-2.848-11.375-4.465-17.811-4.465h-11.388v-276.943c0-5.523-4.478-10-10-10h-151.594c-5.522 0-10 4.477-10 10s4.478 10 10 10h141.594v209.558c-5.31-2.848-11.375-4.465-17.811-4.465h-42.778c-10.988 0-20.896 4.712-27.811 12.221-6.915-7.509-16.823-12.221-27.811-12.221h-42.779c-10.988 0-20.896 4.712-27.811 12.221-6.915-7.509-16.823-12.221-27.811-12.221h-42.779c-10.988 0-20.896 4.712-27.811 12.221-6.915-7.509-16.823-12.221-27.811-12.221h-42.776c-6.435 0-12.5 1.617-17.811 4.465v-209.558h141.594c5.523 0 10-4.477 10-10s-4.477-10-10-10h-151.594c-5.523 0-10 4.477-10 10v276.943h-11.39c-6.435 0-12.5 1.617-17.811 4.465v-298.406c.001-12.492 10.164-22.655 22.655-22.655zm360.946 328.817c-6.915-7.509-16.823-12.221-27.811-12.221h-11.389v-24.04c0-9.821 7.99-17.811 17.811-17.811h42.778c9.82 0 17.811 7.99 17.811 17.811v24.04h-11.39c-10.988 0-20.896 4.712-27.81 12.221zm-98.4 0c-6.915-7.509-16.823-12.221-27.811-12.221h-11.389v-24.04c0-9.821 7.99-17.811 17.811-17.811h42.779c9.82 0 17.811 7.99 17.811 17.811v24.04h-11.39c-10.988 0-20.896 4.712-27.811 12.221zm-98.4 0c-6.915-7.509-16.823-12.221-27.811-12.221h-11.389v-24.04c0-9.821 7.99-17.811 17.811-17.811h42.779c9.821 0 17.811 7.99 17.811 17.811v24.04h-11.39c-10.989 0-20.897 4.712-27.811 12.221zm-98.4 0c-6.915-7.509-16.823-12.221-27.811-12.221h-11.389v-24.04c0-9.821 7.99-17.811 17.811-17.811h42.779c9.821 0 17.811 7.99 17.811 17.811v24.04h-11.39c-10.989 0-20.896 4.712-27.811 12.221zm-88.4 25.59c0-9.821 7.99-17.811 17.811-17.811h42.779c9.821 0 17.811 7.99 17.811 17.811v54.135h-78.401zm98.4 0c0-9.821 7.99-17.811 17.811-17.811h42.779c9.821 0 17.811 7.99 17.811 17.811v54.135h-78.4v-54.135zm98.4 0c0-9.821 7.99-17.811 17.811-17.811h42.779c9.82 0 17.811 7.99 17.811 17.811v54.135h-78.4v-54.135zm98.4 0c0-9.821 7.99-17.811 17.811-17.811h42.778c9.82 0 17.811 7.99 17.811 17.811v54.135h-78.4zm176.8 54.135h-78.4v-54.135c0-9.821 7.99-17.811 17.811-17.811h42.779c9.82 0 17.811 7.99 17.811 17.811v54.135z"/></g></g></svg>