<?xml version="1.0" encoding="UTF-8"?>
<svg xmlns="http://www.w3.org/2000/svg" id="Line" width="512" height="512" viewBox="0 0 64 64"><path d="M61.28418,36.94971a5.01659,5.01659,0,0,1-4.2334-4.23438A2.00966,2.00966,0,0,0,55.07129,31H25.92871a2.00934,2.00934,0,0,0-1.97949,1.71533,5.01659,5.01659,0,0,1-4.2334,4.23438A2.00853,2.00853,0,0,0,18,38.9292V55.0708a2.00864,2.00864,0,0,0,1.71582,1.97949,5.01659,5.01659,0,0,1,4.2334,4.23438A2.00966,2.00966,0,0,0,25.92871,63H55.07129a2.00934,2.00934,0,0,0,1.97949-1.71533,5.01659,5.01659,0,0,1,4.2334-4.23438A2.00853,2.00853,0,0,0,63,55.0708V38.9292A2.00864,2.00864,0,0,0,61.28418,36.94971ZM31,54H27a1,1,0,0,1,0-2h4a1,1,0,0,1,0,2Zm0-6H27a1,1,0,0,1,0-2h4a1,1,0,0,1,0,2Zm0-6H27a1,1,0,0,1,0-2h4a1,1,0,0,1,0,2Zm5,17a1,1,0,0,1-2,0V35a1,1,0,0,1,2,0Zm18-5H39a1,1,0,0,1,0-2H54a1,1,0,0,1,0,2Zm0-6H39a1,1,0,0,1,0-2H54a1,1,0,0,1,0,2Zm0-6H39a1,1,0,0,1,0-2H54a1,1,0,0,1,0,2Z" style="fill:#c4a2fc"/><circle cx="17" cy="14" r="1.5" style="fill:#151a6a"/><path d="M4,50H2a1,1,0,0,0,0,2H50a1,1,0,0,0,0-2H48V27a3.00328,3.00328,0,0,0,3-3V22a3.00328,3.00328,0,0,0-3-3H35.738A7.79138,7.79138,0,0,0,36,17a2.00229,2.00229,0,0,1,2-2,1,1,0,0,0,0-2,4.00427,4.00427,0,0,0-4,4,5.94288,5.94288,0,0,1-.362,2H28.99707A13,13,0,1,0,5.00293,19H4a3.00328,3.00328,0,0,0-3,3v2a3.00328,3.00328,0,0,0,3,3Zm2-8h4v8H6Zm16-6V50H18V36ZM16,50H12V36h4Zm8,0V42h5v3a.99974.99974,0,0,0,1,1h7a.99974.99974,0,0,0,1-1V42h2v3a.99974.99974,0,0,0,1,1h5v4Zm12-6H31V33h5Zm10,0H42V33h4Zm2-23a1.001,1.001,0,0,1,1,1v2a1.001,1.001,0,0,1-1,1H30.76685A11.02829,11.02829,0,0,0,34.907,21ZM17,23a2,2,0,1,1,2-2A2.00229,2.00229,0,0,1,17,23Zm11-2h4.51166a11.89823,11.89823,0,0,1-8.55756,3.96484,13.08338,13.08338,0,0,0,3.98975-3.97619C27.9635,20.98981,27.9801,21,28,21ZM17,5a2,2,0,1,1-2,2A2.00229,2.00229,0,0,1,17,5ZM16,3.05066V3.142a4,4,0,1,0,2,0V3.05066A11.01139,11.01139,0,0,1,27.94934,13H27.858a4,4,0,1,0,0,2h.09137A11.01139,11.01139,0,0,1,18,24.94934V24.858a4,4,0,1,0-2,0v.09131A11.01139,11.01139,0,0,1,6.05066,15H6.142a4,4,0,1,0,0-2H6.05066A11.01139,11.01139,0,0,1,16,3.05066ZM26,14a2,2,0,1,1-2-2A2.00229,2.00229,0,0,1,26,14ZM8,14a2,2,0,1,1,2,2A2.00229,2.00229,0,0,1,8,14ZM3,24V22a1.001,1.001,0,0,1,1-1H6c.0199,0,.0365-.01019.05615-.01135A13.08192,13.08192,0,0,0,10.1037,25H4A1.001,1.001,0,0,1,3,24Zm43,3v4H41a.99974.99974,0,0,0-1,1v8H38V32a.99974.99974,0,0,0-1-1H30a.99974.99974,0,0,0-1,1v8H24V35a.99974.99974,0,0,0-1-1H11a.99974.99974,0,0,0-1,1v5H6V27Z" style="fill:#151a6a"/></svg>
