<svg id="Cinema" height="512" viewBox="0 0 64 64" width="512" xmlns="http://www.w3.org/2000/svg"><path d="m28 35h-22l-1-19h23z" fill="#5bcbfa"/><path d="m3 12h29v4h-29z" fill="#b7c1cd"/><path d="m7 8h21a2 2 0 0 1 2 2v2a0 0 0 0 1 0 0h-25a0 0 0 0 1 0 0v-2a2 2 0 0 1 2-2z" fill="#5bcbfa"/><path d="m36.157 57.784-.569-2.842a3.659 3.659 0 0 0 -3.588-2.942 3.659 3.659 0 0 0 -3.588 2.942l-.569 2.842a4 4 0 0 1 -3.922 3.216h-16.921a4 4 0 0 1 -4-4v-22a2 2 0 0 1 2-2h54a2 2 0 0 1 2 2v22a4 4 0 0 1 -4 4h-16.921a4 4 0 0 1 -3.922-3.216z" fill="#57565c"/><path d="m20.2 56h-13.2v-19h18l-.8 15.21a4 4 0 0 1 -4 3.79z" fill="#ec455a"/><path d="m57 56h-17l-1-19h18z" fill="#44ffe8"/><path d="m58.45 20.02a4 4 0 0 0 -3.45-6.02 3.737 3.737 0 0 0 -1.01.15c0-.05.01-.1.01-.15a3 3 0 0 0 -2.8-2.98 2.986 2.986 0 0 0 -2.2-5.02 2.887 2.887 0 0 0 -1.02.19c0-.06.02-.13.02-.19a3 3 0 0 0 -6 0 2.955 2.955 0 0 0 .32 1.32 2.955 2.955 0 0 0 -1.32-.32 3.009 3.009 0 0 0 -2.5 1.35 3 3 0 0 0 -5.5 1.65c0 .05.01.1.01.15a3.737 3.737 0 0 0 -1.01-.15 4 4 0 0 0 -4 4 3.737 3.737 0 0 0 .15 1.01c-.05 0-.1-.01-.15-.01a3 3 0 0 0 -2.07 5.17l.01.01" fill="#f6cc4f"/><path d="m59 33h-34l-1-13h36z" fill="#dd636e"/><g fill="#edf9fa"><path d="m28 20h4v13h-4z"/><path d="m36 20h4v13h-4z"/><path d="m44 20h4v13h-4z"/><path d="m52 20h4v13h-4z"/></g><path d="m60.06 32.2.94-12.12a1.01 1.01 0 0 0 -1-1.08h-.11a4.787 4.787 0 0 0 .11-1 4.976 4.976 0 0 0 -5.13-5 4.064 4.064 0 0 0 -2.13-2.59 3.921 3.921 0 0 0 .26-1.41 4.021 4.021 0 0 0 -4.13-4 4 4 0 0 0 -7.87 1 4.007 4.007 0 0 0 -2.5.88 3.995 3.995 0 0 0 -6.37 2.12 4.46 4.46 0 0 0 -1.27.13 3 3 0 0 0 -2.86-2.13h-16v-5h-2v5h-3a3.009 3.009 0 0 0 -3 3v1h-1a1 1 0 0 0 -1 1v4a1 1 0 0 0 1 1h1.05l.79 15.02a2.988 2.988 0 0 0 -2.84 2.98v22a5 5 0 0 0 5 5h16.92a5 5 0 0 0 4.9-4.02l.57-2.84a2.662 2.662 0 0 1 5.22 0l.57 2.84a5 5 0 0 0 4.9 4.02h16.92a5 5 0 0 0 5-5v-22a3.012 3.012 0 0 0 -1.94-2.8zm-1.14-11.2-.85 11h-1.07v-11zm-26.92-10a2.949 2.949 0 0 1 .74.11.97.97 0 0 0 .87-.16 1.014 1.014 0 0 0 .4-.8.662.662 0 0 0 -.01-.15 2 2 0 0 1 3.67-1.1 1.03 1.03 0 0 0 1.66 0 1.991 1.991 0 0 1 2.54-.69.994.994 0 0 0 1.34-1.34 1.954 1.954 0 0 1 -.21-.87 2 2 0 0 1 4-.05 1.942 1.942 0 0 0 -.02.24.983.983 0 0 0 .43.82 1.009 1.009 0 0 0 .92.12 1.983 1.983 0 0 1 2.14 3.21 1 1 0 0 0 .66 1.68 1.993 1.993 0 0 1 1.87 1.96c0 .03-.01.14-.01.17a1.014 1.014 0 0 0 .4.8.97.97 0 0 0 .87.16 2.942 2.942 0 0 1 3.74 2.89 3.06 3.06 0 0 1 -.19 1h-31.53a1.932 1.932 0 0 1 -.28-1 2 2 0 0 1 .52-1.34 1.959 1.959 0 0 1 1.46-.66c.03 0 .14.01.17.01a1.014 1.014 0 0 0 .8-.4.97.97 0 0 0 .16-.87 2.987 2.987 0 0 1 2.89-3.74zm23 10v11h-2v-11zm-4 0v11h-2v-11zm-4 0v11h-2v-11zm-4 0v11h-2v-11zm-4 0v11h-2v-11zm-4 0v11h-2v-11zm-4 0v11h-2v-11zm-4 0v11h-1.07l-.85-11zm-21-11a1 1 0 0 1 1-1h21a1 1 0 0 1 1 1 4.939 4.939 0 0 0 -.99 1h-22.01zm-2 5v-2h23.1c-.01.04 0 .07-.01.11a5.371 5.371 0 0 0 -.09.89v.12a4.185 4.185 0 0 0 -.79.31c-.05.02-.1.05-.14.07a4.24 4.24 0 0 0 -.69.48c0 .01-.02.01-.03.02zm20.14 4h-.14a1.01 1.01 0 0 0 -1 1.08l.92 11.92h-17.08l-.79-15h18.09a4.231 4.231 0 0 0 -.14 1 4.16 4.16 0 0 0 .14 1zm35.86 38a3.009 3.009 0 0 1 -3 3h-16.92a3 3 0 0 1 -2.94-2.41l-.57-2.84a4.66 4.66 0 0 0 -9.14 0l-.57 2.84a3 3 0 0 1 -2.94 2.41h-16.92a3.009 3.009 0 0 1 -3-3v-22a1 1 0 0 1 1-1h54a1 1 0 0 1 1 1z"/><path d="m25 36h-18a1 1 0 0 0 -1 1v19a1 1 0 0 0 1 1h13.2a5 5 0 0 0 5-4.737l.8-15.21a1 1 0 0 0 -1-1.053zm-1.8 16.158a3 3 0 0 1 -3 2.842h-12.2v-17h15.946z"/><path d="m57 36h-18a1 1 0 0 0 -1 1.053l1 19a1 1 0 0 0 1 .947h17a1 1 0 0 0 1-1v-19a1 1 0 0 0 -1-1zm-1 19h-15.051l-.895-17h15.946z"/><path d="m28 39h8v2h-8z"/><path d="m30 43h4v2h-4z"/></svg>