<svg id="Cinema" height="512" viewBox="0 0 64 64" width="512" xmlns="http://www.w3.org/2000/svg"><path d="m28 35h-22l-1-19h23z" fill="#5bcbfa"/><path d="m3 12h29v4h-29z" fill="#b7c1cd"/><path d="m7 8h21a2 2 0 0 1 2 2v2a0 0 0 0 1 0 0h-25a0 0 0 0 1 0 0v-2a2 2 0 0 1 2-2z" fill="#5bcbfa"/><path d="m36.157 57.784-.569-2.842a3.659 3.659 0 0 0 -3.588-2.942 3.659 3.659 0 0 0 -3.588 2.942l-.569 2.842a4 4 0 0 1 -3.922 3.216h-16.921a4 4 0 0 1 -4-4v-22a2 2 0 0 1 2-2h54a2 2 0 0 1 2 2v22a4 4 0 0 1 -4 4h-16.921a4 4 0 0 1 -3.922-3.216z" fill="#57565c"/><path d="m20.2 56h-13.2v-19h18l-.8 15.21a4 4 0 0 1 -4 3.79z" fill="#ec455a"/><path d="m57 56h-17l-1-19h18z" fill="#44ffe8"/><path d="m58.45 20.02a4 4 0 0 0 -3.45-6.02 3.737 3.737 0 0 0 -1.01.15c0-.05.01-.1.01-.15a3 3 0 0 0 -2.8-2.98 2.986 2.986 0 0 0 -2.2-5.02 2.887 2.887 0 0 0 -1.02.19c0-.06.02-.13.02-.19a3 3 0 0 0 -6 0 2.955 2.955 0 0 0 .32 1.32 2.955 2.955 0 0 0 -1.32-.32 3.009 3.009 0 0 0 -2.5 1.35 3 3 0 0 0 -5.5 1.65c0 .05.01.1.01.15a3.737 3.737 0 0 0 -1.01-.15 4 4 0 0 0 -4 4 3.737 3.737 0 0 0 .15 1.01c-.05 0-.1-.01-.15-.01a3 3 0 0 0 -2.07 5.17l.01.01" fill="#f6cc4f"/><path d="m59 33h-34l-1-13h36z" fill="#dd636e"/><g fill="#edf9fa"><path d="m28 20h4v13h-4z"/><path d="m36 20h4v13h-4z"/><path d="m44 20h4v13h-4z"/><path d="m52 20h4v13h-4z"/></g><path d="m28 39h8v2h-8z" fill="#acabb1"/><path d="m30 43h4v2h-4z" fill="#acabb1"/><path d="m9 3h2v5h-2z" fill="#b7c1cd"/></svg>