<svg id="Cinema" height="512" viewBox="0 0 64 64" width="512" xmlns="http://www.w3.org/2000/svg"><path d="m18 34a7.041 7.041 0 0 0 1.5-.163 7 7 0 1 0 -1.5.163zm.912-11.91c.054.01.11.015.163.026a5 5 0 0 1 0 9.768c-.053.012-.11.016-.164.026a13.673 13.673 0 0 1 0-9.82zm-2.167.089a15.971 15.971 0 0 0 0 9.642 4.976 4.976 0 0 1 0-9.642z"/><path d="m32 20a7.041 7.041 0 0 0 6.837-5.495 7 7 0 1 0 -6.837 5.495zm0-12a5 5 0 0 1 4.822 3.748 16.075 16.075 0 0 0 -9.644 0 5 5 0 0 1 4.822-3.748zm4.91 5.913c-.01.054-.015.11-.026.163a5 5 0 0 1 -9.768 0c-.011-.053-.016-.109-.026-.163a14.007 14.007 0 0 1 9.82 0z"/><path d="m44.5 33.837a7 7 0 1 0 -5.5-6.837 7.041 7.041 0 0 0 5.5 6.837zm2.759-11.658a4.976 4.976 0 0 1 0 9.642 15.971 15.971 0 0 0 0-9.642zm-2.331-.063c.053-.012.11-.016.164-.026a13.673 13.673 0 0 1 0 9.82c-.054-.01-.11-.015-.163-.026a5 5 0 0 1 0-9.768z"/><path d="m32 23a4 4 0 1 0 4 4 4 4 0 0 0 -4-4zm0 6a2 2 0 1 1 2-2 2 2 0 0 1 -2 2z"/><path d="m61 38h-6.561a25 25 0 1 0 -44.878 0h-6.561a1 1 0 0 0 -1 1v22a1 1 0 0 0 1 1h58a1 1 0 0 0 1-1v-22a1 1 0 0 0 -1-1zm-52-11a23 23 0 1 1 43.174 11h-13.874a6.958 6.958 0 0 0 -12.6 0h-13.874a22.838 22.838 0 0 1 -2.826-11zm26.992 11h-7.984a4.984 4.984 0 0 1 7.984 0zm-31.992 8h3v8h-3zm56 14h-56v-4h56zm-51-6v-8h14v8zm16 0v-8h14v8zm16 0v-8h14v8zm19 0h-3v-8h3zm0-10h-56v-4h56z"/><path d="m5 41h2v2h-2z"/><path d="m9 41h2v2h-2z"/><path d="m13 41h2v2h-2z"/><path d="m17 41h2v2h-2z"/><path d="m21 41h2v2h-2z"/><path d="m25 41h2v2h-2z"/><path d="m29 41h2v2h-2z"/><path d="m33 41h2v2h-2z"/><path d="m37 41h2v2h-2z"/><path d="m41 41h2v2h-2z"/><path d="m45 41h2v2h-2z"/><path d="m49 41h2v2h-2z"/><path d="m53 41h2v2h-2z"/><path d="m57 41h2v2h-2z"/><path d="m5 57h2v2h-2z"/><path d="m9 57h2v2h-2z"/><path d="m13 57h2v2h-2z"/><path d="m17 57h2v2h-2z"/><path d="m21 57h2v2h-2z"/><path d="m25 57h2v2h-2z"/><path d="m29 57h2v2h-2z"/><path d="m33 57h2v2h-2z"/><path d="m37 57h2v2h-2z"/><path d="m41 57h2v2h-2z"/><path d="m45 57h2v2h-2z"/><path d="m49 57h2v2h-2z"/><path d="m53 57h2v2h-2z"/><path d="m57 57h2v2h-2z"/></svg>