<svg id="Cinema" height="512" viewBox="0 0 64 64" width="512" xmlns="http://www.w3.org/2000/svg"><path d="m37 12a15 15 0 1 0 15 15 15 15 0 0 0 -15-15zm0 18a3 3 0 1 1 3-3 3 3 0 0 1 -3 3z" fill="#57565c"/><path d="m37 3a24 24 0 1 0 24 24 24 24 0 0 0 -24-24zm-12.71 29.86a6.07 6.07 0 0 1 -1.29.14 6 6 0 0 1 0-12 6.07 6.07 0 0 1 1.29.14 6 6 0 0 1 0 11.72zm12.71 14.14a6 6 0 0 1 -6-6 6.07 6.07 0 0 1 .14-1.29 6 6 0 0 1 11.72 0 6.07 6.07 0 0 1 .14 1.29 6 6 0 0 1 -6 6zm-3-20a3 3 0 1 1 3 3 3 3 0 0 1 -3-3zm8.86-12.71a6 6 0 0 1 -11.72 0 6.07 6.07 0 0 1 -.14-1.29 6 6 0 0 1 12 0 6.07 6.07 0 0 1 -.14 1.29zm8.14 18.71a6.07 6.07 0 0 1 -1.29-.14 6 6 0 0 1 0-11.72 6.07 6.07 0 0 1 1.29-.14 6 6 0 0 1 0 12z" fill="#4a80aa"/><rect fill="#898890" height="19" rx="2" width="58" x="3" y="39"/><path d="m48 58h8v3h-8z" fill="#2d2d30" transform="matrix(-1 0 0 -1 104 119)"/><path d="m8 58h8v3h-8z" fill="#2d2d30" transform="matrix(-1 0 0 -1 24 119)"/><circle cx="20" cy="41" fill="#2d4754" r="12"/><circle cx="20" cy="41" fill="#5bcbfa" r="8"/><path d="m22.828 38.172a4 4 0 0 0 -5.656 5.656z" fill="#fff"/><g fill="#787680"><path d="m40 50h16v2h-16z"/><path d="m40 54h16v2h-16z"/></g></svg>