<svg id="Cinema" height="512" viewBox="0 0 64 64" width="512" xmlns="http://www.w3.org/2000/svg"><path d="m37 12a15 15 0 1 0 15 15 15 15 0 0 0 -15-15zm0 18a3 3 0 1 1 3-3 3 3 0 0 1 -3 3z" fill="#57565c"/><path d="m37 3a24 24 0 1 0 24 24 24 24 0 0 0 -24-24zm-12.71 29.86a6.07 6.07 0 0 1 -1.29.14 6 6 0 0 1 0-12 6.07 6.07 0 0 1 1.29.14 6 6 0 0 1 0 11.72zm12.71 14.14a6 6 0 0 1 -6-6 6.07 6.07 0 0 1 .14-1.29 6 6 0 0 1 11.72 0 6.07 6.07 0 0 1 .14 1.29 6 6 0 0 1 -6 6zm-3-20a3 3 0 1 1 3 3 3 3 0 0 1 -3-3zm8.86-12.71a6 6 0 0 1 -11.72 0 6.07 6.07 0 0 1 -.14-1.29 6 6 0 0 1 12 0 6.07 6.07 0 0 1 -.14 1.29zm8.14 18.71a6.07 6.07 0 0 1 -1.29-.14 6 6 0 0 1 0-11.72 6.07 6.07 0 0 1 1.29-.14 6 6 0 0 1 0 12z" fill="#4a80aa"/><rect fill="#898890" height="19" rx="2" width="58" x="3" y="39"/><path d="m48 58h8v3h-8z" fill="#2d2d30" transform="matrix(-1 0 0 -1 104 119)"/><path d="m8 58h8v3h-8z" fill="#2d2d30" transform="matrix(-1 0 0 -1 24 119)"/><circle cx="20" cy="41" fill="#2d4754" r="12"/><circle cx="20" cy="41" fill="#5bcbfa" r="8"/><path d="m22.828 38.172a4 4 0 0 0 -5.656 5.656z" fill="#fff"/><path d="m37 20a7.04 7.04 0 0 0 6.837-5.5 7 7 0 1 0 -6.837 5.5zm0-12a5 5 0 0 1 4.822 3.748 16.075 16.075 0 0 0 -9.644 0 5 5 0 0 1 4.822-3.748zm4.91 5.913c-.01.054-.015.11-.026.163a5 5 0 0 1 -9.768 0c-.011-.053-.016-.109-.026-.163a14 14 0 0 1 9.82 0z"/><path d="m59.43 38.04a25 25 0 1 0 -47.43-11.04 24.58 24.58 0 0 0 .27 3.57 13.036 13.036 0 0 0 -4.91 7.43h-2.36a3.009 3.009 0 0 0 -3 3v15a3.009 3.009 0 0 0 3 3h2v2a1 1 0 0 0 1 1h8a1 1 0 0 0 1-1v-2h30v2a1 1 0 0 0 1 1h8a1 1 0 0 0 1-1v-2h2a3.009 3.009 0 0 0 3-3v-15a3 3 0 0 0 -2.57-2.96zm-22.43-34.04a22.987 22.987 0 0 1 20.19 34h-13.89a7 7 0 0 0 -6.3-4 6.923 6.923 0 0 0 -4.97 2.09 13.064 13.064 0 0 0 -3.47-4.85 6.916 6.916 0 0 0 1.44-4.24 7.045 7.045 0 0 0 -5.5-6.84 7.488 7.488 0 0 0 -1.5-.16 7.008 7.008 0 0 0 -7 7 6.882 6.882 0 0 0 .19 1.57 13.16 13.16 0 0 0 -2.05.84 23.818 23.818 0 0 1 -.14-2.41 23.029 23.029 0 0 1 23-23zm3.99 34h-7.97a4.97 4.97 0 0 1 7.97 0zm-12.99-11a4.929 4.929 0 0 1 -1.05 3.03 12.874 12.874 0 0 0 -3.88-1.65c-.04-.44-.07-.9-.07-1.38a13.838 13.838 0 0 1 .91-4.91 1.01 1.01 0 0 1 .17.03 5.026 5.026 0 0 1 3.92 4.88zm-6.96 1.05c-.35-.02-.69-.05-1.04-.05a12.591 12.591 0 0 0 -1.85.15 4.9 4.9 0 0 1 3.6-5.97 15.618 15.618 0 0 0 -.75 4.82c0 .36.02.71.04 1.05zm-1.04 1.95a11 11 0 1 1 -11 11 11.007 11.007 0 0 1 11-11zm-5 30h-6v-1h6zm40 0h-6v-1h6zm5-4a1 1 0 0 1 -1 1h-54a1 1 0 0 1 -1-1v-15a1 1 0 0 1 1-1h2.05c-.02.33-.05.66-.05 1a13 13 0 0 0 26 0c0-.34-.03-.67-.05-1h26.05a1 1 0 0 1 1 1z"/><path d="m49.5 33.836a7 7 0 1 0 -5.5-6.836 6.974 6.974 0 0 0 5.5 6.836zm2.76-11.657a4.976 4.976 0 0 1 0 9.642 15.971 15.971 0 0 0 0-9.642zm-2.33-.062c.053-.012.109-.017.163-.027a13.673 13.673 0 0 1 0 9.82c-.054-.01-.111-.015-.164-.027a5 5 0 0 1 0-9.766z"/><path d="m37 23a4 4 0 1 0 4 4 4 4 0 0 0 -4-4zm0 6a2 2 0 1 1 2-2 2 2 0 0 1 -2 2z"/><path d="m20 50a9 9 0 1 0 -9-9 9.01 9.01 0 0 0 9 9zm0-16a7 7 0 1 1 -7 7 7.008 7.008 0 0 1 7-7z"/><path d="m17.172 44.829a1 1 0 0 0 .707-.293l5.656-5.658a1 1 0 0 0 0-1.414 5 5 0 1 0 -7.07 7.072 1 1 0 0 0 .707.293zm.707-5.951a3.005 3.005 0 0 1 3.415-.586l-4 4a3.007 3.007 0 0 1 .585-3.414z"/><path d="m40 50h16v2h-16z"/><path d="m40 54h16v2h-16z"/></svg>